<svg width="28" height="28" viewBox="0 0 28 28" xmlns="http://www.w3.org/2000/svg">
    <g fill="none" fill-rule="evenodd">
        <circle fill="#0091FF" cx="14" cy="14" r="14"/>
        <path d="m20.897 16.133-1.592-.788a.634.634 0 0 0-.497 0l-4.56 2.256a.636.636 0 0 1-.496 0l-4.56-2.256a.635.635 0 0 0-.497 0l-1.592.788c-.136.067-.136.178 0 .246l6.649 3.288a.633.633 0 0 0 .496 0l6.65-3.288c.136-.068.136-.178 0-.246zM7.103 12.309l6.649 3.036c.16.062.336.062.496 0l6.65-3.036c.135-.062.135-.164 0-.226l-6.65-3.036a.677.677 0 0 0-.496 0l-6.65 3.036c-.136.062-.136.164 0 .226z" fill="#FFF" fill-rule="nonzero"/>
    </g>
</svg>
