<svg width="28" height="28" viewBox="0 0 28 28" xmlns="http://www.w3.org/2000/svg">
    <g fill="none" fill-rule="evenodd">
        <circle fill="#FA6400" cx="14" cy="14" r="14"/>
        <path d="M14 7c-3.867 0-7 3.133-7 7s3.133 7 7 7 7-3.133 7-7-3.133-7-7-7zm0 2.71a2.484 2.484 0 1 1 0 4.967 2.484 2.484 0 0 1 0-4.967zm0 9.71a5.409 5.409 0 0 1-4.135-1.926c.53-.999 1.57-1.688 2.78-1.688a.69.69 0 0 1 .2.032c.367.118.751.194 1.155.194s.79-.076 1.154-.194a.69.69 0 0 1 .2-.032c1.212 0 2.25.69 2.781 1.688A5.409 5.409 0 0 1 14 19.42z" fill="#FFF" fill-rule="nonzero"/>
    </g>
</svg>
